<?xml version="1.0" encoding="UTF-8" standalone="no"?>
<!DOCTYPE svg PUBLIC "-//W3C//DTD SVG 1.1//EN" "http://www.w3.org/Graphics/SVG/1.1/DTD/svg11.dtd">
<svg version="1.1" xmlns="http://www.w3.org/2000/svg" xmlns:xlink="http://www.w3.org/1999/xlink" preserveAspectRatio="xMidYMid meet" viewBox="0 0 640 640" width="640" height="640"><defs><path d="M421.72 254.48C421.72 318.24 380.26 370 329.2 370C278.13 370 236.67 318.24 236.67 254.48C236.67 190.73 278.13 138.97 329.2 138.97C380.26 138.97 421.72 190.73 421.72 254.48Z" id="c5JPHaosSW"></path><path d="M341.84 384.94L316.55 384.94L328.62 367.7L341.84 384.94Z" id="b8Oil8ipSF"></path></defs><g><g><g><g><filter id="shadow9676511" x="220.67" y="122.97" width="225.06" height="271.03" filterUnits="userSpaceOnUse" primitiveUnits="userSpaceOnUse"><feFlood></feFlood><feComposite in2="SourceAlpha" operator="in"></feComposite><feGaussianBlur stdDeviation="1"></feGaussianBlur><feOffset dx="8" dy="8" result="afterOffset"></feOffset><feFlood flood-color="#000000" flood-opacity="0.5"></feFlood><feComposite in2="afterOffset" operator="in"></feComposite><feMorphology operator="dilate" radius="1"></feMorphology><feComposite in2="SourceAlpha" operator="out"></feComposite></filter><path d="M421.72 254.48C421.72 318.24 380.26 370 329.2 370C278.13 370 236.67 318.24 236.67 254.48C236.67 190.73 278.13 138.97 329.2 138.97C380.26 138.97 421.72 190.73 421.72 254.48Z" id="a1GITqo8iq" fill="white" fill-opacity="1" filter="url(#shadow9676511)"></path></g><use xlink:href="#c5JPHaosSW" opacity="1" fill="#e3360a" fill-opacity="1"></use></g><g><g><filter id="shadow13944430" x="300.55" y="351.7" width="65.29" height="57.24" filterUnits="userSpaceOnUse" primitiveUnits="userSpaceOnUse"><feFlood></feFlood><feComposite in2="SourceAlpha" operator="in"></feComposite><feGaussianBlur stdDeviation="1"></feGaussianBlur><feOffset dx="8" dy="8" result="afterOffset"></feOffset><feFlood flood-color="#000000" flood-opacity="0.5"></feFlood><feComposite in2="afterOffset" operator="in"></feComposite><feMorphology operator="dilate" radius="1"></feMorphology><feComposite in2="SourceAlpha" operator="out"></feComposite></filter><path d="M341.84 384.94L316.55 384.94L328.62 367.7L341.84 384.94Z" id="dqdeNsjRp" fill="white" fill-opacity="1" filter="url(#shadow13944430)"></path></g><use xlink:href="#b8Oil8ipSF" opacity="1" fill="#e3260a" fill-opacity="1"></use><g><use xlink:href="#b8Oil8ipSF" opacity="1" fill-opacity="0" stroke="#000000" stroke-width="0" stroke-opacity="1"></use></g></g></g></g></svg>